<svg width="20" height="20" viewBox="0 0 20 20" fill="none" xmlns="http://www.w3.org/2000/svg">
<path d="M6.8098 10.0008L1.7998 13.2628V6.73878L6.8098 10.0008ZM13.1898 10.0008L18.1998 13.2628V6.73878L13.1898 10.0008ZM12.4578 10.4788L10.2178 11.9368C10.1518 11.9788 10.0758 12.0008 9.9998 12.0008C9.9238 12.0008 9.8478 11.9788 9.7818 11.9368L7.5418 10.4788L2.1318 14.0008L1.8178 14.2048C1.9158 14.7688 2.4078 15.2008 2.9998 15.2008H16.9998C17.5918 15.2008 18.0838 14.7708 18.1818 14.2048L17.8658 14.0008L12.4578 10.4788ZM9.9998 11.1228L17.8658 6.00078L18.1818 5.79678C18.0838 5.23078 17.5918 4.80078 16.9998 4.80078H2.9998C2.4078 4.80078 1.9158 5.23278 1.8178 5.79678L2.1318 6.00078L9.9998 11.1228Z" fill="#D9D9D9"/>
</svg>
