<svg width="19" height="17" viewBox="0 0 19 17" fill="none" xmlns="http://www.w3.org/2000/svg">
<path d="M18.404 3.96231C17.5978 1.77481 16.1072 0.612306 13.8415 0.418556C11.8478 0.246681 10.1947 1.66856 9.4009 2.53106C8.60715 1.68106 6.9509 0.246681 4.96028 0.418556C2.69465 0.612306 1.21028 1.77168 0.397777 3.96231C0.0306523 5.04247 -0.0844638 6.19232 0.0612403 7.32383C0.206944 8.45534 0.609606 9.53851 1.2384 10.4904C3.38528 13.7904 7.37903 15.9029 9.1884 16.5592C9.32572 16.6088 9.47608 16.6088 9.6134 16.5592C11.4228 15.9029 15.4165 13.7904 17.5634 10.4904C18.1922 9.53851 18.5949 8.45534 18.7406 7.32383C18.8863 6.19232 18.7712 5.04247 18.404 3.96231ZM16.5884 4.35606C16.4932 4.41004 16.3854 4.43806 16.2759 4.43731C16.1663 4.43719 16.0587 4.40826 15.9638 4.35341C15.8689 4.29856 15.7901 4.21972 15.7353 4.12481C15.2884 3.35606 14.6572 2.99043 13.629 2.90293H13.5165C13.4345 2.90703 13.3524 2.89493 13.275 2.86731C13.1976 2.8397 13.1264 2.7971 13.0654 2.74197C12.9424 2.63062 12.8686 2.47494 12.8603 2.30918C12.852 2.14342 12.9099 1.98116 13.0212 1.85809C13.1326 1.73502 13.2883 1.66122 13.454 1.65293H13.7353C13.8072 1.65293 13.954 1.67481 14.0478 1.69043C14.1415 1.70606 14.2478 1.72168 14.3603 1.74043C14.4572 1.75918 14.554 1.78106 14.6478 1.80918C14.7415 1.83731 14.8353 1.86543 14.9228 1.89668C15.0103 1.92793 15.0822 1.95293 15.1572 1.98731C15.5266 2.14939 15.865 2.37464 16.1572 2.65293C16.2809 2.76849 16.3938 2.89505 16.4947 3.03106C16.629 3.20222 16.7492 3.38407 16.854 3.57481C16.9122 3.71507 16.9174 3.87172 16.8685 4.0155C16.8196 4.15927 16.72 4.28033 16.5884 4.35606Z" fill="white"/>
</svg>
